HIERARCHY
ROOT reference
{
  OFFSET 0 0 0
  CHANNELS 6 Xposition Yposition Zposition Zrotation Xrotation Yrotation
  JOINT Hips
  {
    OFFSET 355.919 86.4685 225.794
    CHANNELS 3 Zrotation Xrotation Yrotation
    JOINT RightUpLeg
    {
      OFFSET -9.27022 -1.53975 0.0125073
      CHANNELS 3 Zrotation Xrotation Yrotation
      JOINT RightLeg
      {
        OFFSET 0.013591 -41.8786 0.0152335
        CHANNELS 3 Zrotation Xrotation Yrotation
        JOINT RightFoot
        {
          OFFSET -0.635566 -43.1371 -0.638083
          CHANNELS 3 Zrotation Xrotation Yrotation
          End Site
          {
            OFFSET 0 -7.69 17.5
          }
        }
      }
    }
    JOINT LeftUpLeg
    {
      OFFSET 9.3307 -1.62449 -0.0651281
      CHANNELS 3 Zrotation Xrotation Yrotation
      JOINT LeftLeg
      {
        OFFSET 0.136006 -41.8606 -0.0682192
        CHANNELS 3 Zrotation Xrotation Yrotation
        JOINT LeftFoot
        {
          OFFSET 0.555276 -40.3296 1.11688
          CHANNELS 3 Zrotation Xrotation Yrotation
          End Site
          {
            OFFSET 0 -7.69 17.5
          }
        }
      }
    }
    JOINT Spine
    {
      OFFSET 0.0523142 14.2998 0.0636653
      CHANNELS 3 Zrotation Xrotation Yrotation
      JOINT Spine1
      {
        OFFSET 0.0411785 9.71676 0.0113233
        CHANNELS 3 Zrotation Xrotation Yrotation
        JOINT Spine2
        {
          OFFSET 0.0674534 10.1151 -0.00111457
          CHANNELS 3 Zrotation Xrotation Yrotation
          JOINT Spine3
          {
            OFFSET 0.048863 9.72171 0.0174249
            CHANNELS 3 Zrotation Xrotation Yrotation
            JOINT Neck
            {
              OFFSET 0.180558 10.3768 0.0617075
              CHANNELS 3 Zrotation Xrotation Yrotation
              JOINT Head
              {
                OFFSET 0.135918 9.47305 0.0380206
                CHANNELS 3 Zrotation Xrotation Yrotation
                End Site
                {
                  OFFSET 0 15.95 0
                }
              }
            }
            JOINT RightShoulder
            {
              OFFSET -3.15694 6.89408 0.00348883
              CHANNELS 3 Zrotation Xrotation Yrotation
              JOINT RightArm
              {
                OFFSET -12.7409 -0.0031918 0.045926
                CHANNELS 3 Zrotation Xrotation Yrotation
                JOINT RightForeArm
                {
                  OFFSET -26.5086 -0.0806184 0.00400063
                  CHANNELS 3 Zrotation Xrotation Yrotation
                  JOINT RightHand
                  {
                    OFFSET -26.0338 -0.025514 0.155859
                    CHANNELS 3 Zrotation Xrotation Yrotation
                    JOINT RightHandThumb1
                    {
                      OFFSET -2.48905 0.190105 3.12053
                      CHANNELS 3 Zrotation Xrotation Yrotation
                      JOINT RightHandThumb2
                      {
                        OFFSET -3.68274 0 0
                        CHANNELS 3 Zrotation Xrotation Yrotation
                        JOINT RightHandThumb3
                        {
                          OFFSET -2.55832 0 0
                          CHANNELS 3 Zrotation Xrotation Yrotation
                          End Site
                          {
                            OFFSET -2.194 0 0
                          }
                        }
                      }
                    }
                    JOINT RightInHandIndex
                    {
                      OFFSET -3.22368 0.508421 1.97842
                      CHANNELS 3 Zrotation Xrotation Yrotation
                      JOINT RightHandIndex1
                      {
                        OFFSET -5.21684 -0.091368 0.999158
                        CHANNELS 3 Zrotation Xrotation Yrotation
                        JOINT RightHandIndex2
                        {
                          OFFSET -3.61937 0 0
                          CHANNELS 3 Zrotation Xrotation Yrotation
                          JOINT RightHandIndex3
                          {
                            OFFSET -2.0521 0 0
                            CHANNELS 3 Zrotation Xrotation Yrotation
                            End Site
                            {
                              OFFSET -1.805 0 0
                            }
                          }
                        }
                      }
                    }
                    JOINT RightInHandMiddle
                    {
                      OFFSET -3.38211 0.517263 0.756737
                      CHANNELS 3 Zrotation Xrotation Yrotation
                      JOINT RightHandMiddle1
                      {
                        OFFSET -5.17411 -0.084 0.313895
                        CHANNELS 3 Zrotation Xrotation Yrotation
                        JOINT RightHandMiddle2
                        {
                          OFFSET -3.94947 0 0
                          CHANNELS 3 Zrotation Xrotation Yrotation
                          JOINT RightHandMiddle3
                          {
                            OFFSET -2.47579 0 0
                            CHANNELS 3 Zrotation Xrotation Yrotation
                            End Site
                            {
                              OFFSET -1.975 0 0
                            }
                          }
                        }
                      }
                    }
                    JOINT RightInHandRing
                    {
                      OFFSET -3.36516 0.537895 -0.128947
                      CHANNELS 3 Zrotation Xrotation Yrotation
                      JOINT RightHandRing1
                      {
                        OFFSET -4.63474 -0.022105 -0.478947
                        CHANNELS 3 Zrotation Xrotation Yrotation
                        JOINT RightHandRing2
                        {
                          OFFSET -3.44238 0 0
                          CHANNELS 3 Zrotation Xrotation Yrotation
                          JOINT RightHandRing3
                          {
                            OFFSET -2.3881 0 0
                            CHANNELS 3 Zrotation Xrotation Yrotation
                            End Site
                            {
                              OFFSET -1.857 0 0
                            }
                          }
                        }
                      }
                    }
                    JOINT RightInHandPinky
                    {
                      OFFSET -3.16105 0.469368 -1.20179
                      CHANNELS 3 Zrotation Xrotation Yrotation
                      JOINT RightHandPinky1
                      {
                        OFFSET -4.14105 -0.022105 -1.09053
                        CHANNELS 3 Zrotation Xrotation Yrotation
                        JOINT RightHandPinky2
                        {
                          OFFSET -2.75653 0 0
                          CHANNELS 3 Zrotation Xrotation Yrotation
                          JOINT RightHandPinky3
                          {
                            OFFSET -1.74189 0 0
                            CHANNELS 3 Zrotation Xrotation Yrotation
                            End Site
                            {
                              OFFSET -1.645 0 0
                            }
                          }
                        }
                      }
                    }
                  }
                }
              }
            }
            JOINT LeftShoulder
            {
              OFFSET 3.22505 6.94333 0.022328
              CHANNELS 3 Zrotation Xrotation Yrotation
              JOINT LeftArm
              {
                OFFSET 12.8536 -0.0213048 -0.00476292
                CHANNELS 3 Zrotation Xrotation Yrotation
                JOINT LeftForeArm
                {
                  OFFSET 26.4992 -0.0497473 -0.102272
                  CHANNELS 3 Zrotation Xrotation Yrotation
                  JOINT LeftHand
                  {
                    OFFSET 25.9818 -0.0182282 -0.0189166
                    CHANNELS 3 Zrotation Xrotation Yrotation
                    JOINT LeftHandThumb1
                    {
                      OFFSET 2.48905 0.190105 3.12053
                      CHANNELS 3 Zrotation Xrotation Yrotation
                      JOINT LeftHandThumb2
                      {
                        OFFSET 3.68274 0 0
                        CHANNELS 3 Zrotation Xrotation Yrotation
                        JOINT LeftHandThumb3
                        {
                          OFFSET 2.55832 0 0
                          CHANNELS 3 Zrotation Xrotation Yrotation
                          End Site
                          {
                            OFFSET 2.194 0 0
                          }
                        }
                      }
                    }
                    JOINT LeftInHandIndex
                    {
                      OFFSET 3.22368 0.508421 1.97842
                      CHANNELS 3 Zrotation Xrotation Yrotation
                      JOINT LeftHandIndex1
                      {
                        OFFSET 5.21684 -0.091368 0.999158
                        CHANNELS 3 Zrotation Xrotation Yrotation
                        JOINT LeftHandIndex2
                        {
                          OFFSET 3.61937 0 0
                          CHANNELS 3 Zrotation Xrotation Yrotation
                          JOINT LeftHandIndex3
                          {
                            OFFSET 2.0521 0 0
                            CHANNELS 3 Zrotation Xrotation Yrotation
                            End Site
                            {
                              OFFSET 1.805 0 0
                            }
                          }
                        }
                      }
                    }
                    JOINT LeftInHandMiddle
                    {
                      OFFSET 3.38211 0.517263 0.756737
                      CHANNELS 3 Zrotation Xrotation Yrotation
                      JOINT LeftHandMiddle1
                      {
                        OFFSET 5.17411 -0.084 0.313895
                        CHANNELS 3 Zrotation Xrotation Yrotation
                        JOINT LeftHandMiddle2
                        {
                          OFFSET 3.94947 0 0
                          CHANNELS 3 Zrotation Xrotation Yrotation
                          JOINT LeftHandMiddle3
                          {
                            OFFSET 2.47579 0 0
                            CHANNELS 3 Zrotation Xrotation Yrotation
                            End Site
                            {
                              OFFSET 1.975 0 0
                            }
                          }
                        }
                      }
                    }
                    JOINT LeftInHandRing
                    {
                      OFFSET 3.36516 0.537895 -0.128947
                      CHANNELS 3 Zrotation Xrotation Yrotation
                      JOINT LeftHandRing1
                      {
                        OFFSET 4.63474 -0.022105 -0.478947
                        CHANNELS 3 Zrotation Xrotation Yrotation
                        JOINT LeftHandRing2
                        {
                          OFFSET 3.44238 0 0
                          CHANNELS 3 Zrotation Xrotation Yrotation
                          JOINT LeftHandRing3
                          {
                            OFFSET 2.3881 0 0
                            CHANNELS 3 Zrotation Xrotation Yrotation
                            End Site
                            {
                              OFFSET 1.857 0 0
                            }
                          }
                        }
                      }
                    }
                    JOINT LeftInHandPinky
                    {
                      OFFSET 3.16105 0.469368 -1.20179
                      CHANNELS 3 Zrotation Xrotation Yrotation
                      JOINT LeftHandPinky1
                      {
                        OFFSET 4.14105 -0.022105 -1.09053
                        CHANNELS 3 Zrotation Xrotation Yrotation
                        JOINT LeftHandPinky2
                        {
                          OFFSET 2.75653 0 0
                          CHANNELS 3 Zrotation Xrotation Yrotation
                          JOINT LeftHandPinky3
                          {
                            OFFSET 1.74189 0 0
                            CHANNELS 3 Zrotation Xrotation Yrotation
                            End Site
                            {
                              OFFSET 1.645 0 0
                            }
                          }
                        }
                      }
                    }
                  }
                }
              }
            }
          }
        }
      }
    }
  }
}
MOTION
Frames:	4
Frame Time:	0.00833333
0 0 0 0 0 -0 28.44 13.617 -73.5389 -26.8929 -59.2264 -26.8797 2.37666 25.5902 -17.2025 10.3816 9.8875 26.318 30.8389 -47.3244 18.3045 -1.6537 34.8832 0.849405 -15.6207 -13.6422 -16.7329 -9.84549 9.56286 16.8766 -2.20189 2.78125 4.0191 -3.65415 4.57821 6.46438 -0.117728 -0.440541 -0.553572 -0.117619 -0.44343 -0.552534 -2.82988 -8.47177 -9.7283 2.93865 -10.3143 22.5204 72.5456 -4.18535 49.9804 26.9152 -50.3098 17.8439 16.0033 -20.2737 -21.1785 28.184 10.7294 19.1592 5.47535e-15 3.57812e-15 -10 4.07085e-15 4.77083e-15 -10 6.36111e-15 7.95139e-15 -1.11319e-14 19.9818 0.871897 2.3964 24 1.23246e-14 2.22639e-14 20 0 1.90833e-14 6.36111e-15 7.95139e-15 -1.11319e-14 20 -6.36111e-15 2.54444e-14 24 4.77083e-15 2.8625e-14 20 1.03368e-14 1.27222e-14 6.36111e-15 7.95139e-15 -1.11319e-14 19.9748 -1.02565 -2.81938 24 9.14409e-15 1.27222e-14 20 -1.03368e-14 1.90833e-14 6.36111e-15 7.95139e-15 -1.11319e-14 19.7815 -3.00948 -8.30515 24 -3.57812e-15 3.18055e-14 20 8.74653e-15 2.8625e-14 15.0842 -12.8363 -30.8514 -37.8898 31.616 -70.1553 13.8334 -61.1731 16.017 -29.0803 -24.0364 7.82335 -28.184 10.7294 -19.1592 1.29185e-14 0 10 7.86128e-15 -7.95139e-15 10 9.54166e-15 9.54166e-15 -1.27222e-14 -19.9818 0.871897 -2.3964 -24 -2.38542e-15 -9.54166e-15 -20 7.95139e-16 -1.27222e-14 9.54166e-15 9.54166e-15 -1.27222e-14 -20 -6.36111e-15 -0 -24 7.95139e-16 -0 -20 -3.18055e-15 9.54166e-15 9.54166e-15 9.54166e-15 -1.27222e-14 -19.9748 -1.02565 2.81938 -24 -2.78299e-15 -1.59028e-14 -20 -6.36111e-15 6.36111e-15 9.54166e-15 9.54166e-15 -1.27222e-14 -19.7815 -3.00948 8.30515 -24 -1.2921e-15 -0 -20 -9.54166e-15 6.36111e-15 
0 0 0 0 0 -0 28.4704 13.5059 -73.796 -26.58 -59.3566 -26.474 2.33422 25.5633 -17.1396 10.362 9.9244 26.3264 30.9348 -47.1758 18.4702 -1.62291 35.0495 0.631054 -15.6232 -13.8987 -16.4562 -9.83869 9.51929 16.8199 -2.2003 2.76837 4.00506 -3.65002 4.55734 6.4423 -0.127234 -0.440542 -0.539015 -0.127149 -0.443431 -0.537889 -2.98214 -8.44928 -9.46763 3.15543 -9.92346 21.8181 72.6114 -3.89129 49.952 27.9114 -50.3099 19.1991 16.695 -21.3806 -19.1399 28.184 10.7294 19.1592 2.57318e-14 -5.96354e-16 -10 9.61876e-15 -3.97569e-16 -10 -3.18055e-15 3.18055e-15 -0 19.9818 0.871897 2.3964 24 1.83876e-14 4.45278e-14 20 5.56597e-15 2.06736e-14 -3.18055e-15 3.18055e-15 -0 20 7.95139e-15 1.43125e-14 24 7.95139e-15 5.40694e-14 20 5.56597e-15 1.59028e-14 -3.18055e-15 3.18055e-15 -0 19.9748 -1.02565 -2.81938 24 6.36111e-15 2.54444e-14 20 -7.95139e-15 -6.36111e-15 -3.18055e-15 3.18055e-15 -0 19.7815 -3.00948 -8.30515 24 -9.93923e-16 2.54444e-14 20 7.95139e-16 9.54166e-15 15.2863 -12.9644 -31.5758 -38.5218 31.3292 -69.555 13.7595 -60.2739 15.8175 -29.1003 -24.03 7.82218 -28.184 10.7294 -19.1592 7.58087e-15 -6.36111e-15 10 4.35126e-15 -6.36111e-15 10 -3.18055e-15 1.27222e-14 -0 -19.9818 0.871897 -2.3964 -24 3.57812e-15 -0 -20 -3.97569e-15 -1.90833e-14 -3.18055e-15 1.27222e-14 -0 -20 -1.59028e-15 9.54166e-15 -24 -9.14409e-15 1.27222e-14 -20 -1.59028e-15 -0 -3.18055e-15 1.27222e-14 -0 -19.9748 -1.02565 2.81938 -24 -1.98785e-15 6.36111e-15 -20 -3.18055e-15 9.54166e-15 -3.18055e-15 1.27222e-14 -0 -19.7815 -3.00948 8.30515 -24 1.98785e-15 3.18055e-15 -20 1.59028e-15 -1.27222e-14 
0 0 0 0 0 -0 28.5006 13.4009 -74.0612 -26.2412 -59.4882 -26.0545 2.28305 25.5311 -17.0806 10.3369 9.96681 26.3444 31.027 -47.0292 18.6313 -1.66387 35.0671 0.691174 -15.6131 -13.9428 -16.3775 -9.8202 9.47891 16.7436 -2.19846 2.75498 3.98623 -3.6452 4.5353 6.41312 -0.137671 -0.440543 -0.522703 -0.137613 -0.443432 -0.521491 -3.14886 -8.42411 -9.17583 3.14318 -9.76841 21.7801 72.9086 -4.15689 49.5928 29.0804 -50.1949 20.8373 16.441 -21.391 -19.1871 28.184 10.7294 19.1592 3.81892e-15 3.34207e-15 -10 1.89522e-15 1.59028e-15 -10 3.18055e-15 -3.18055e-15 -0 19.9818 0.871897 2.3964 24 9.34288e-15 2.70347e-14 20 3.97569e-15 3.65764e-14 3.18055e-15 -3.18055e-15 -0 20 6.36111e-15 1.43125e-14 24 2.98177e-15 4.77083e-14 20 9.54166e-15 2.06736e-14 3.18055e-15 -3.18055e-15 -0 19.9748 -1.02565 -2.81938 24 -9.24349e-15 4.45278e-14 20 -8.74653e-15 2.8625e-14 3.18055e-15 -3.18055e-15 -0 19.7815 -3.00948 -8.30515 24 -7.35503e-15 4.45278e-14 20 8.74653e-15 2.22639e-14 15.2746 -12.8998 -31.6424 -38.4997 31.4177 -69.6597 13.6949 -59.363 15.6344 -29.1295 -24.2634 7.71726 -28.184 10.7294 -19.1592 7.02006e-15 -3.18055e-15 10 -0 0 10 7.06225e-31 1.27222e-14 -3.18055e-15 -19.9818 0.871897 -2.3964 -24 2.38542e-15 -1.59028e-14 -20 -1.59028e-15 9.54166e-15 7.06225e-31 1.27222e-14 -3.18055e-15 -20 -3.18055e-15 -0 -24 0 -1.59028e-14 -20 -3.18055e-15 9.54166e-15 7.06225e-31 1.27222e-14 -3.18055e-15 -19.9748 -1.02565 2.81938 -24 5.96354e-15 -3.18055e-14 -20 -3.97569e-15 -0 7.06225e-31 1.27222e-14 -3.18055e-15 -19.7815 -3.00948 8.30515 -24 2.5842e-15 -9.54166e-15 -20 -3.97569e-15 3.18055e-15 
0 0 0 0 0 -0 28.5312 13.2862 -74.3368 -25.8756 -59.6217 -25.6072 2.23004 25.5057 -17.0211 10.3063 9.99957 26.3679 31.128 -46.8773 18.806 -1.75348 35.0427 0.87376 -15.5959 -13.9092 -16.3777 -9.80228 9.43736 16.6597 -2.19649 2.74118 3.96538 -3.64008 4.51259 6.38069 -0.148284 -0.440545 -0.505114 -0.148249 -0.443434 -0.503821 -3.31621 -8.38737 -8.86182 3.14103 -9.59472 21.6966 73.194 -4.38158 49.225 30.2952 -50.2035 22.486 16.3333 -21.3242 -19.0505 28.184 10.7294 19.1592 1.63759e-14 1.2921e-15 -10 1.48137e-14 1.59028e-15 -10 0 0 -4.77083e-15 19.9818 0.871897 2.3964 24 1.09083e-14 3.81667e-14 20 6.36111e-15 3.49861e-14 0 0 -4.77083e-15 20 0 1.90833e-14 24 4.37326e-15 3.97569e-14 20 6.36111e-15 1.90833e-14 0 0 -4.77083e-15 19.9748 -1.02565 -2.81938 24 1.09332e-14 3.49861e-14 20 -3.97569e-15 1.90833e-14 0 0 -4.77083e-15 19.7815 -3.00948 -8.30515 24 3.77691e-15 3.18055e-14 20 -7.15625e-15 2.22639e-14 15.2815 -12.8443 -31.7564 -38.4595 31.4941 -69.7782 13.6623 -58.4822 15.4751 -29.2361 -25.6475 7.13346 -28.184 10.7294 -19.1592 1.61481e-14 0 10 7.30047e-15 -4.77083e-15 10 -9.54166e-15 1.59028e-14 -0 -19.9818 0.871897 -2.3964 -24 1.19271e-15 -1.27222e-14 -20 -7.95139e-16 6.36111e-15 -9.54166e-15 1.59028e-14 -0 -20 -1.59028e-15 -0 -24 -2.38542e-15 -3.18055e-15 -20 -4.77083e-15 1.59028e-14 -9.54166e-15 1.59028e-14 -0 -19.9748 -1.02565 2.81938 -24 -4.57205e-15 -2.8625e-14 -20 -6.36111e-15 9.54166e-15 -9.54166e-15 1.59028e-14 -0 -19.7815 -3.00948 8.30515 -24 -1.78906e-15 3.18055e-15 -20 -8.74653e-15 1.59028e-14 
